Coordinates
version=1
nRows=14
nColumns=33
inDegrees=yes

Units are S.I. units (second, meters, Newtons, ...)
Angles are in degrees.

endheader
time	ground_thorax_rot_x	ground_thorax_rot_y	ground_thorax_rot_z	ground_thorax_tx	ground_thorax_ty	ground_thorax_tz	clav_prot_r	clav_elev_r	scapula_abduction_r	scapula_elevation_r	scapula_upward_rot_r	scapula_winging_r	shoulder_elv_r	plane_of_elev_r	axial_rot_r	elbow_flexion_r	pro_sup_r	wrist_flex_r	wrist_dev_r	clav_prot_l	clav_elev_l	scapula_abduction_l	scapula_elevation_l	scapula_upward_rot_l	scapula_winging_l	shoulder_elv_l	plane_of_elev_l	axial_rot_l	elbow_flexion_l	pro_sup_l	wrist_flex_l	wrist_dev_l
      5.84000000	     -3.42310828	      1.90332784	     10.48671515	     -0.10358597	      1.02574522	      0.01092728	     17.36459791	    -12.73982127	     44.05691179	    -13.41013657	     24.68555835	    -12.81820686	     -4.21614258	    -53.51038887	    122.22618380	    -32.49178003	   -117.99436184	     -6.29447786	      9.13719447	     25.26982850	    -12.45194481	    -37.64862422	     -5.61644057	    -26.81762418	     12.09526559	     57.02485753	      1.05634372	     10.27430179	     12.75111930	     21.56720053	     18.35673448	     -6.69956898
      5.85000000	     -3.44529038	      1.89786525	     10.43783942	     -0.10295534	      1.02612317	      0.01097408	     17.36916850	    -12.73033457	     44.04839689	    -13.39529266	     24.66092412	    -12.82600682	     -4.23658504	    -53.52889862	    122.23278108	    -32.47321220	   -118.00016347	     -6.29235269	      9.13734732	     25.27097511	    -12.46182872	    -37.64942682	     -5.61311153	    -26.82780219	     12.09277798	     57.01007993	      1.05882274	     10.26599146	     12.74073564	     21.56877603	     18.35190334	     -6.69611741
      5.86000000	     -3.45387131	      1.89287239	     10.38589675	     -0.10263678	      1.02650705	      0.01105290	     17.37279456	    -12.71227781	     44.03094356	    -13.37056831	     24.62510848	    -12.83569981	     -4.25319350	    -53.56947012	    122.23311053	    -32.45182335	   -118.00687609	     -6.29027182	      9.13659713	     25.27042158	    -12.45518514	    -37.64989977	     -5.61916940	    -26.82869058	     12.09754796	     57.01519597	      1.05145143	     10.25992874	     12.72989082	     21.56981154	     18.34432187	     -6.69233062
      5.87000000	     -3.21852545	      2.32722981	     10.12603899	     -0.10180784	      1.02588284	      0.01156698	     16.75838191	    -11.47478504	     43.63249670	    -12.52000384	     25.33287462	    -13.27491724	     -5.00035136	    -53.41000219	    121.93189638	    -31.61654910	   -122.12976728	     -4.45415779	      7.23800237	     25.20453983	    -12.27301143	    -37.57075784	     -5.63390627	    -26.52128793	     12.11303526	     56.59086655	      1.44074420	      9.06673483	     12.60122677	     20.84146985	     15.61471368	     -6.27407052
      5.88000000	     -3.30240753	      2.20575884	     10.22612616	     -0.10213968	      1.02643128	      0.01130459	     17.14872973	    -12.21500979	     43.83238013	    -13.00093132	     24.79895195	    -13.01295476	     -4.99561796	    -54.22202856	    122.07873373	    -32.05751534	   -126.16700384	     -4.19650418	      5.22137726	     25.11301522	    -12.22562950	    -37.43156714	     -5.63114452	    -26.42198507	     12.04883107	     56.50598930	      0.92199452	      8.91274989	     12.92081125	     19.50460795	     15.94831340	     -6.38876929
      5.89000000	     -3.18851009	      2.24984583	     10.15361882	     -0.10188932	      1.02626853	      0.01151665	     17.01584645	    -11.95296592	     43.49977688	    -12.73095488	     24.59131667	    -13.04494947	     -5.04657222	    -54.24741782	    121.99671444	    -32.53238715	   -126.47419089	     -3.96408119	      5.12909078	     25.01051020	    -12.09604572	    -37.27806514	     -5.79857238	    -26.53306125	     11.97874274	     56.48029927	      0.88428160	      8.96476428	     13.55089494	     19.45808427	     15.84193526	     -6.51030003
      5.90000000	     -3.15229941	      2.42505692	     10.53249202	     -0.10185599	      1.02602169	      0.01178771	     16.79190158	    -11.81379629	     42.68902294	    -12.44418656	     23.89811047	    -12.83860043	     -5.34465588	    -54.36018016	    121.92888072	    -32.94854206	   -129.02492931	     -2.72716537	      4.89415963	     24.76630634	    -12.13328246	    -36.87030137	     -5.86390014	    -26.71321370	     11.71110505	     56.50608045	      0.41944118	      8.18834261	     14.18745636	     19.47508553	     15.68132153	     -6.74234779
      5.91000000	     -3.37701749	      2.47971405	     10.22081801	     -0.10166338	      1.02652055	      0.01159518	     16.59269940	    -12.63920113	     41.90704810	    -12.99280743	     23.26742837	    -12.04242714	     -5.10875271	    -54.78951227	    122.17067007	    -33.60674360	   -134.64296629	     -1.56299442	      3.64162524	     24.44675629	    -11.88818669	    -36.38285626	     -5.94361272	    -26.40134409	     11.49697959	     56.73272644	     -0.06961975	      7.84307262	     14.99470952	     19.06111542	     15.87812180	     -7.12505377
      5.92000000	     -3.31788321	      2.50040785	     10.19390761	     -0.10184422	      1.02591868	      0.01180907	     16.47221091	    -12.37696231	     41.50644402	    -12.68452152	     22.93041184	    -12.06216322	     -5.26838361	    -54.80494094	    122.17047765	    -34.31683165	   -135.02629421	     -1.40695304	      3.48750883	     24.31790993	    -11.62793370	    -36.20338612	     -6.25001077	    -26.57082720	     11.44310989	     56.74567592	     -0.23118692	      8.03389355	     16.05360408	     18.95208849	     15.79054176	     -7.35029398
      5.93000000	     -3.47145129	      2.65334437	     10.27557865	     -0.10192931	      1.02597413	      0.01171932	     16.03581292	    -12.98153910	     40.13893202	    -12.96083643	     21.95635319	    -11.16199015	     -5.12569254	    -55.06393212	    122.57068583	    -35.20441447	   -140.09803942	     -0.86142200	      3.12599459	     24.02048840	    -11.48119660	    -35.72943003	     -6.40684451	    -26.60989904	     11.18941881	     56.96340416	     -0.80564258	      7.43213461	     17.20856748	     18.90045738	     15.99548914	     -7.71633861
      5.94000000	     -3.34961403	      2.74108754	     10.23960394	     -0.10227607	      1.02531053	      0.01204324	     15.98704737	    -12.73198393	     39.69648697	    -12.59265845	     21.38633933	    -11.18584267	     -5.34415191	    -55.13611126	    122.46612877	    -36.47268364	   -140.42442812	     -0.57110062	      2.94326031	     23.87719552	    -11.25227927	    -35.52140134	     -6.67889774	    -26.75467524	     11.10966781	     56.96886952	     -0.98496735	      7.58131167	     18.34196826	     18.78542652	     15.92083557	     -7.97065348
      5.95000000	     -3.53000375	      2.87601406	     10.30919374	     -0.10247118	      1.02549613	      0.01198204	     15.61900534	    -13.50979069	     38.35441946	    -12.97355025	     20.28831144	    -10.20586248	     -5.35469630	    -55.49950184	    122.49632480	    -37.90103537	   -144.04882831	     -0.36700914	      3.02111228	     23.53671907	    -11.10773178	    -34.97599331	     -6.85812768	    -26.83473996	     10.81190851	     57.28216196	     -1.69482560	      6.98778176	     19.77396958	     18.66021996	     16.06760475	     -8.29540798
      5.96000000	     -3.38201186	      2.95315195	     10.29731500	     -0.10297160	      1.02467750	      0.01224608	     15.51536105	    -13.17388302	     37.83217808	    -12.52428719	     19.71641560	    -10.24510804	     -5.67654033	    -55.59802793	    122.41897073	    -39.39351117	   -144.31243467	     -0.03220062	      2.87577648	     23.36851382	    -10.85135248	    -34.72697754	     -7.17263634	    -27.01913277	     10.70760200	     57.26456867	     -1.89093270	      7.19080869	     21.07064813	     18.52534400	     15.98746275	     -8.57285276
      5.97000000	     -3.24618509	      3.01434391	     10.66077798	     -0.10363295	      1.02407072	      0.01242591	     15.41044215	    -13.09509052	     37.08048505	    -12.19859960	     18.81063243	    -10.05248317	     -6.14970163	    -55.92937388	    122.19366962	    -41.03123309	   -145.04998991	      0.25930219	      2.82475533	     23.12972680	    -10.74957302	    -34.34320848	     -7.45734575	    -27.41359050	     10.47435553	     57.27543803	     -2.40105377	      7.03269956	     22.52667738	     18.46122965	     15.99346455	     -8.89681128
